<svg width="57" height="56" viewBox="0 0 57 56" fill="none" xmlns="http://www.w3.org/2000/svg">
<circle cx="28.526" cy="28" r="28" fill="url(#paint0_linear_1_418)"/>
<g clip-path="url(#clip0_1_418)">
<path fill-rule="evenodd" clip-rule="evenodd" d="M33.9742 29.3183C35.5726 30.4033 36.6926 31.8733 36.6926 33.8333V37.3333H40.1926C40.8342 37.3333 41.3592 36.8083 41.3592 36.1667V33.8333C41.3592 31.29 37.1942 29.785 33.9742 29.3183Z" fill="white"/>
<path d="M25.026 27.9998C27.6033 27.9998 29.6926 25.9104 29.6926 23.3331C29.6926 20.7558 27.6033 18.6664 25.026 18.6664C22.4487 18.6664 20.3593 20.7558 20.3593 23.3331C20.3593 25.9104 22.4487 27.9998 25.026 27.9998Z" fill="white"/>
<path fill-rule="evenodd" clip-rule="evenodd" d="M32.026 27.9998C34.6043 27.9998 36.6926 25.9114 36.6926 23.3331C36.6926 20.7548 34.6043 18.6664 32.026 18.6664C31.4776 18.6664 30.9643 18.7831 30.4743 18.9464C31.4426 20.1481 32.026 21.6764 32.026 23.3331C32.026 24.9898 31.4426 26.5181 30.4743 27.7198C30.9643 27.8831 31.4776 27.9998 32.026 27.9998Z" fill="white"/>
<path fill-rule="evenodd" clip-rule="evenodd" d="M25.026 29.1665C21.911 29.1665 15.6926 30.7298 15.6926 33.8331V36.1665C15.6926 36.8081 16.2176 37.3331 16.8593 37.3331H33.1926C33.8343 37.3331 34.3593 36.8081 34.3593 36.1665V33.8331C34.3593 30.7298 28.141 29.1665 25.026 29.1665Z" fill="white"/>
</g>
<defs>
<linearGradient id="paint0_linear_1_418" x1="0.526001" y1="0" x2="56.526" y2="56" gradientUnits="userSpaceOnUse">
<stop stop-color="#868CFF"/>
<stop offset="1" stop-color="#4318FF"/>
</linearGradient>
<clipPath id="clip0_1_418">
<rect width="28" height="28" fill="white" transform="translate(14.526 14)"/>
</clipPath>
</defs>
</svg>
