<svg width="57" height="56" viewBox="0 0 57 56" fill="none" xmlns="http://www.w3.org/2000/svg">
<circle cx="28.2629" cy="28" r="28" fill="#F4F7FE"/>
<path d="M20.547 24.3134H20.8207C21.8743 24.3134 22.7364 25.1755 22.7364 26.2291V35.808C22.7364 36.8616 21.8743 37.7237 20.8207 37.7237H20.547C19.4933 37.7237 18.6312 36.8616 18.6312 35.808V26.2291C18.6312 25.1755 19.4933 24.3134 20.547 24.3134V24.3134ZM28.21 18.5661C29.2637 18.5661 30.1258 19.4282 30.1258 20.4819V35.808C30.1258 36.8616 29.2637 37.7237 28.21 37.7237C27.1564 37.7237 26.2943 36.8616 26.2943 35.808V20.4819C26.2943 19.4282 27.1564 18.5661 28.21 18.5661ZM35.8731 29.5133C36.9268 29.5133 37.7889 30.3754 37.7889 31.4291V35.808C37.7889 36.8616 36.9268 37.7237 35.8731 37.7237C34.8194 37.7237 33.9573 36.8616 33.9573 35.808V31.4291C33.9573 30.3754 34.8194 29.5133 35.8731 29.5133V29.5133Z" fill="#4318FF"/>
</svg>
