<svg width="49" height="48" viewBox="0 0 49 48" fill="none" xmlns="http://www.w3.org/2000/svg">
<circle cx="24.3945" cy="24" r="24" fill="#F6F8FD"/>
<g clip-path="url(#clip0_1_712)">
<path d="M24.3945 14C19.9745 14 16.3945 14.5 16.3945 18V28C16.3945 28.88 16.7845 29.67 17.3945 30.22V32C17.3945 32.55 17.8445 33 18.3945 33H19.3945C19.9445 33 20.3945 32.55 20.3945 32V31H28.3945V32C28.3945 32.55 28.8445 33 29.3945 33H30.3945C30.9445 33 31.3945 32.55 31.3945 32V30.22C32.0045 29.67 32.3945 28.88 32.3945 28V18C32.3945 14.5 28.8145 14 24.3945 14ZM30.0545 16.99H18.7345C19.2845 16.46 20.7045 16 24.3945 16C28.0845 16 29.5045 16.46 30.0545 16.99ZM30.3945 18.99V22H18.3945V18.99H30.3945ZM30.0545 28.73L29.7645 29H19.0245L18.7345 28.73C18.6045 28.62 18.3945 28.37 18.3945 28V24H30.3945V28C30.3945 28.37 30.1845 28.62 30.0545 28.73Z" fill="#4318FF"/>
<path d="M20.8945 28C21.723 28 22.3945 27.3284 22.3945 26.5C22.3945 25.6716 21.723 25 20.8945 25C20.0661 25 19.3945 25.6716 19.3945 26.5C19.3945 27.3284 20.0661 28 20.8945 28Z" fill="#4318FF"/>
<path d="M27.8945 28C28.723 28 29.3945 27.3284 29.3945 26.5C29.3945 25.6716 28.723 25 27.8945 25C27.0661 25 26.3945 25.6716 26.3945 26.5C26.3945 27.3284 27.0661 28 27.8945 28Z" fill="#4318FF"/>
</g>
<defs>
<clipPath id="clip0_1_712">
<rect width="24" height="24" fill="white" transform="translate(12.3945 12)"/>
</clipPath>
</defs>
</svg>
