<svg width="49" height="48" viewBox="0 0 49 48" fill="none" xmlns="http://www.w3.org/2000/svg">
<circle cx="24.3945" cy="24" r="24" fill="#F6F8FD"/>
<g clip-path="url(#clip0_1_732)">
<path d="M16.3945 18H32.3945V20H16.3945V18ZM18.3945 14H30.3945V16H18.3945V14ZM32.3945 22H16.3945C15.2945 22 14.3945 22.9 14.3945 24V32C14.3945 33.1 15.2945 34 16.3945 34H32.3945C33.4945 34 34.3945 33.1 34.3945 32V24C34.3945 22.9 33.4945 22 32.3945 22ZM32.3945 32H16.3945V24H32.3945V32ZM22.3945 24.73V31.26L28.3945 28L22.3945 24.73Z" fill="#FFB547"/>
</g>
<defs>
<clipPath id="clip0_1_732">
<rect width="24" height="24" fill="white" transform="translate(12.3945 12)"/>
</clipPath>
</defs>
</svg>
