<svg width="49" height="48" viewBox="0 0 49 48" fill="none" xmlns="http://www.w3.org/2000/svg">
<circle cx="24.3945" cy="24" r="24" fill="#F6F8FD"/>
<g clip-path="url(#clip0_1_723)">
<path d="M34.3945 21H29.6045L25.2245 14.44C25.0345 14.16 24.7145 14.02 24.3945 14.02C24.0745 14.02 23.7545 14.16 23.5645 14.45L19.1845 21H14.3945C13.8445 21 13.3945 21.45 13.3945 22C13.3945 22.09 13.4045 22.18 13.4345 22.27L15.9745 31.54C16.2045 32.38 16.9745 33 17.8945 33H30.8945C31.8145 33 32.5845 32.38 32.8245 31.54L35.3645 22.27L35.3945 22C35.3945 21.45 34.9445 21 34.3945 21ZM24.3945 16.8L27.1945 21H21.5945L24.3945 16.8ZM30.8945 31L17.9045 31.01L15.7045 23H33.0945L30.8945 31ZM24.3945 25C23.2945 25 22.3945 25.9 22.3945 27C22.3945 28.1 23.2945 29 24.3945 29C25.4945 29 26.3945 28.1 26.3945 27C26.3945 25.9 25.4945 25 24.3945 25Z" fill="#01B574"/>
</g>
<defs>
<clipPath id="clip0_1_723">
<rect width="24" height="24" fill="white" transform="translate(12.3945 12)"/>
</clipPath>
</defs>
</svg>
